<svg width="116" height="45" fill="none" xmlns="http://www.w3.org/2000/svg"><path d="M56.045 22.393C56.045 10.158 46.25.236 34.172.236c-12.079 0-21.874 9.922-21.874 22.157H0S7.774 44.55 34.172 44.55c12.078 0 21.873-9.921 21.873-22.157zm-21.873-7.296c3.953 0 7.203 3.247 7.203 7.296 0 4.005-3.206 7.297-7.203 7.297-3.953 0-7.204-3.248-7.204-7.297 0-4.004 3.25-7.296 7.204-7.296z" fill="#EF5DA8"/><path d="M59.955 22.393c0 12.236 9.795 22.158 21.873 22.158 12.079 0 21.874-9.922 21.874-22.158H116S108.226.236 81.828.236c-12.078 0-21.873 9.922-21.873 22.157zm21.873 7.297c-3.953 0-7.203-3.248-7.203-7.297 0-4.004 3.207-7.296 7.203-7.296 3.953 0 7.204 3.247 7.204 7.296 0 4.005-3.25 7.297-7.204 7.297z" fill="#8E43ED"/></svg>